# xmcd
#
# Track frame offsets:
#	150
#	11653
#	24034
#	34401
#	42656
#	56590
#	69953
#	84267
#	101223
#	118458
#	133437
#	143745
#	158539
#	170593
#	182320
#	195557
#
# Disc length: 2825 seconds
#
# Revision: 1
# Processed by: cddbd v1.5.1PL2 Copyright (c) Steve Scherf et al.
# Submitted via: audiograbber 1.83.01
#
DISCID=d90b0710
DTITLE=Commander Cody and The Lost Planet Airmen - True Adventures
DYEAR=2000
DGENRE=Western Swing
TTITLE0=Riot In Cell Block #9
TTITLE1=Hot Rod Lincoln
TTITLE2=I Took Three Bennies and My Semi Truck Won't Start
TTITLE3=Mama Tried
TTITLE4=Take Me Back To Tulsa
TTITLE5=Jail House Rock
TTITLE6=Crying Time
TTITLE7=What's The Matter Now?
TTITLE8=Beat Me Daddy, Eight To The Bar
TTITLE9=Down To Seeds and Stems Again Blues
TTITLE10=Lawdy Miss Clawdy
TTITLE11=Truck Drivin' Man
TTITLE12=Hard Hearted Woman
TTITLE13=Ain't Nothing Shakin'
TTITLE14=Wine, Wine, Wine
TTITLE15=Down and Out
EXTD=
EXTT0=
EXTT1=
EXTT2=
EXTT3=
EXTT4=
EXTT5=
EXTT6=
EXTT7=
EXTT8=
EXTT9=
EXTT10=
EXTT11=
EXTT12=
EXTT13=
EXTT14=
EXTT15=
PLAYORDER=
